<svg width="18" height="14" viewBox="0 0 18 14" fill="none" xmlns="http://www.w3.org/2000/svg">
<g style="mix-blend-mode:multiply">
<path fill-rule="evenodd" clip-rule="evenodd" d="M0 8.88829C0 3.97942 4.02944 0 9 0C13.9706 0 18 3.97942 18 8.88829C18 10.6991 17.4517 12.3834 16.5101 13.7882C16.4201 13.9224 16.2677 14 16.1061 14H1.94265C1.75469 14 1.58354 13.8961 1.50226 13.7267C1.11127 12.9114 0 10.4563 0 8.88829ZM8.42683 8.27688C8.27755 8.40324 8.2141 8.6059 8.28838 8.78684C8.35918 8.9593 8.46265 9.16564 8.59091 9.29231C8.71522 9.41507 8.91532 9.51485 9.08652 9.58454C9.27733 9.66221 9.48995 9.58743 9.61276 9.42204L12.8751 5.02857C13.0168 4.83774 12.7668 4.60312 12.5853 4.75668L8.42683 8.27688Z" fill="#2B2F99"/>
</g>
</svg>
