<svg width="21" height="20" viewBox="0 0 21 20" fill="none" xmlns="http://www.w3.org/2000/svg">
<g style="mix-blend-mode:multiply">
<path fill-rule="evenodd" clip-rule="evenodd" d="M1 1H20V19H1V1ZM9.14286 3H2.80952V9H9.14286V3ZM18.1905 3H11.8571V9H18.1905V3ZM18.1905 11H11.8571V17H18.1905V11ZM9.14286 11H2.80952V17H9.14286V11Z" fill="#2B2F99"/>
<path fill-rule="evenodd" clip-rule="evenodd" d="M1 1H20V19H1V1ZM9.14286 3H2.80952V9H9.14286V3ZM18.1905 3H11.8571V9H18.1905V3ZM18.1905 11H11.8571V17H18.1905V11ZM9.14286 11H2.80952V17H9.14286V11Z" stroke="#2B2F99" stroke-linejoin="round"/>
</g>
</svg>
